/* XPM */
static char * haskell_xpm[] = {
"20 20 8 1",
" 	c None",
".	c #473763",
"+	c #634F88",
"@	c #624F88",
"#	c #635088",
"$	c #A14D8D",
"%	c #473762",
"&	c #644F88",
"                    ",
"                    ",
"                    ",
" ... +++            ",
" ...  +++           ",
"  ...  ++@          ",
"  .... +++#         ",
"   .... +++  $$$$$$$",
"    ... +++@ $$$$$$$",
"    ...% ++++       ",
"    .... ++++       ",
"    ... #+++++ $$$$$",
"   .... ++++++& $$$$",
"  .... +++& +++     ",
"  ...  +++   +++    ",
" ...  +++    +++@   ",
" ... #++      +++   ",
"                    ",
"                    ",
"                    "};
"                    ",
"                    ",
"                    ",
".... ....           ",
" .... ...           ",
"  ... ....          ",
"  .... ....         ",
"   .... ... ........",
"    ... .... .......",
"    .... ....       ",
"    .... ....       ",
"    ... ...... .....",
"   .... ....... ....",
"  .... .... ...     ",
"  ... ....  ....    ",
" .... ...    ....   ",
".... ....     ...   ",
"                    ",
"                    ",
"                    "};
