/* XPM */
static char * haskell_xpm[] = {
"20 20 11 1",
" 	c None",
".	c #473862",
"+	c #473763",
"@	c #634F88",
"#	c #483764",
"$	c #624F88",
"%	c #635088",
"&	c #A14D8D",
"*	c #473762",
"=	c #644F88",
"-	c #473764",
"                    ",
"                    ",
"                    ",
".+++ @@@@           ",
" +++# @@@           ",
"  +++ @@@$          ",
"  ++++ @@@%         ",
"   ++++ @@@  &&&&&&&",
"    +++ @@@$ &&&&&&&",
"    +++* @@@@       ",
"    ++++ @@@@       ",
"    +++ %@@@@@ &&&&&",
"   ++++ @@@@@@= &&&&",
"  ++++ @@@= @@@     ",
"  +++ @@@@  @@@@    ",
" +++- @@@    @@@$   ",
"++++ %@@=     @@@   ",
"                    ",
"                    ",
"                    "};
